<svg width="240" height="180" viewBox="0 0 240 180" fill="none" xmlns="http://www.w3.org/2000/svg">
  <rect width="240" height="180" rx="34" fill="url(#bg)"/>
  <circle cx="62" cy="128" r="26" fill="#FFF" opacity="0.14"/>
  <circle cx="186" cy="54" r="20" fill="#FFF" opacity="0.12"/>
  <path d="M122 34C130 34 136 40 136 48C136 56 130 62 122 62C114 62 108 56 108 48C108 40 114 34 122 34Z" fill="#FDE7F3"/>
  <path d="M106 68C106 61 112 56 120 56H124C132 56 138 61 138 68V92C138 101 131 108 122 108H120C111 108 104 101 104 92L106 68Z" fill="#1E293B"/>
  <path d="M106 74L88 97" stroke="#1E293B" stroke-width="11" stroke-linecap="round"/>
  <path d="M138 74L155 95" stroke="#1E293B" stroke-width="11" stroke-linecap="round"/>
  <path d="M115 106L100 150" stroke="#1E293B" stroke-width="13" stroke-linecap="round"/>
  <path d="M128 106L143 150" stroke="#1E293B" stroke-width="13" stroke-linecap="round"/>
  <path d="M102 93C102 81 111 74 122 74C133 74 142 81 142 93V110H102V93Z" fill="#F472B6"/>
  <path d="M108 110C108 121 114 129 122 129C130 129 136 121 136 110" stroke="#FDF2F8" stroke-width="5" stroke-linecap="round"/>
  <defs>
    <linearGradient id="bg" x1="18" y1="16" x2="212" y2="160" gradientUnits="userSpaceOnUse">
      <stop stop-color="#60A5FA"/>
      <stop offset="0.55" stop-color="#2563EB"/>
      <stop offset="1" stop-color="#F43F5E"/>
    </linearGradient>
  </defs>
</svg>
