<svg width="240" height="180" viewBox="0 0 240 180" fill="none" xmlns="http://www.w3.org/2000/svg">
  <rect width="240" height="180" rx="34" fill="url(#bg)"/>
  <circle cx="78" cy="52" r="18" fill="#0F172A" opacity="0.16"/>
  <circle cx="186" cy="130" r="28" fill="#FFF" opacity="0.15"/>
  <path d="M124 34C132 34 138 40 138 48C138 55 132 61 124 61C116 61 110 55 110 48C110 40 116 34 124 34Z" fill="#FDE7F3"/>
  <path d="M108 70C108 63 114 58 122 58H126C134 58 140 63 140 70V98C140 107 132 114 123 114H121C112 114 104 107 104 98L108 70Z" fill="#1E293B"/>
  <path d="M104 74L82 101" stroke="#1E293B" stroke-width="12" stroke-linecap="round"/>
  <path d="M140 75L160 95" stroke="#1E293B" stroke-width="12" stroke-linecap="round"/>
  <path d="M117 112L101 151" stroke="#1E293B" stroke-width="14" stroke-linecap="round"/>
  <path d="M129 112L146 151" stroke="#1E293B" stroke-width="14" stroke-linecap="round"/>
  <rect x="96" y="58" width="54" height="98" rx="24" fill="url(#highlight)" opacity="0.62"/>
  <defs>
    <linearGradient id="bg" x1="20" y1="18" x2="210" y2="160" gradientUnits="userSpaceOnUse">
      <stop stop-color="#38BDF8"/>
      <stop offset="0.55" stop-color="#2563EB"/>
      <stop offset="1" stop-color="#EC4899"/>
    </linearGradient>
    <linearGradient id="highlight" x1="123" y1="58" x2="123" y2="156" gradientUnits="userSpaceOnUse">
      <stop stop-color="#FDF2F8"/>
      <stop offset="1" stop-color="#BFDBFE"/>
    </linearGradient>
  </defs>
</svg>
